<svg width="325" height="307" viewBox="0 0 325 307" fill="none" xmlns="http://www.w3.org/2000/svg">
<g clip-path="url(#clip0_63:2418)">
<path d="M87.497 47.0175L86.2259 44.0716L83.0714 43.4435C82.9907 43.4268 82.9162 43.3879 82.8565 43.3314C82.7967 43.2748 82.7539 43.2028 82.733 43.1233C82.7121 43.0439 82.7138 42.9602 82.738 42.8817C82.7622 42.8032 82.8079 42.733 82.8699 42.6789L85.2872 40.5659L84.9105 37.3812C84.9007 37.2996 84.914 37.2168 84.949 37.1424C84.984 37.0679 85.0392 37.0047 85.1085 36.96C85.1777 36.9153 85.2582 36.8908 85.3407 36.8893C85.4232 36.8879 85.5045 36.9095 85.5753 36.9517L88.341 38.5892L91.2659 37.2507C91.3407 37.2161 91.4238 37.203 91.5057 37.2129C91.5876 37.2229 91.665 37.2556 91.7292 37.3072C91.7934 37.3588 91.8418 37.4273 91.8688 37.505C91.8959 37.5826 91.9006 37.6663 91.8823 37.7464L91.1712 40.8749L93.3528 43.2308C93.4087 43.2913 93.4465 43.3661 93.462 43.4468C93.4775 43.5275 93.4701 43.611 93.4406 43.6877C93.4111 43.7645 93.3606 43.8315 93.2949 43.8812C93.2293 43.931 93.1509 43.9614 93.0688 43.9692L89.8639 44.2602L88.2886 47.0576C88.2481 47.1289 88.1885 47.1877 88.1164 47.2271C88.0443 47.2666 87.9625 47.2853 87.8804 47.2812C87.7982 47.277 87.7188 47.2501 87.6511 47.2035C87.5834 47.157 87.53 47.0925 87.497 47.0175Z" fill="#F47458"/>
<path d="M236.002 4.98672L236.989 3.73051L240.067 6.13255L242.669 1.5773L244.061 2.36594L240.54 8.52657L236.002 4.98672Z" fill="#50BFA5"/>
<path d="M115.876 8.61084C115.72 10.1511 115.109 11.6108 114.12 12.8052C113.132 13.9997 111.81 14.8752 110.322 15.321C108.834 15.7669 107.246 15.7631 105.76 15.31C104.274 14.857 102.956 13.9751 101.974 12.7759C100.991 11.5768 100.387 10.1142 100.239 8.57314C100.091 7.03211 100.404 5.48189 101.141 4.11857C101.877 2.75525 103.003 1.64008 104.375 0.914116C105.748 0.188149 107.305 -0.115999 108.852 0.0401447C110.924 0.249411 112.827 1.26977 114.145 2.87693C115.462 4.48409 116.084 6.54651 115.876 8.61084Z" fill="#F7CC7F"/>
<path d="M103.767 8.63693C103.712 9.18335 103.765 9.7353 103.924 10.2613C104.082 10.7872 104.343 11.2769 104.692 11.7023C105.396 12.5615 106.414 13.1068 107.522 13.2183C108.63 13.3298 109.737 12.9983 110.599 12.2968C111.026 11.9495 111.38 11.5218 111.641 11.0381C111.902 10.5544 112.065 10.0242 112.121 9.47775L103.767 8.63693Z" fill="#EFEFEF"/>
<path d="M254.715 33.5022L257.084 30.9637L255.765 30.0948C255.627 30.0032 255.53 29.8606 255.498 29.6985C255.465 29.5363 255.498 29.3677 255.59 29.2299C255.635 29.1615 255.693 29.1026 255.762 29.0568C255.83 29.0109 255.906 28.9788 255.987 28.9624C256.068 28.946 256.151 28.9456 256.231 28.9612C256.312 28.9768 256.389 29.0081 256.458 29.0533L257.977 30.0566L260.106 27.783L258.696 26.8539C258.627 26.8087 258.568 26.7505 258.522 26.6826C258.476 26.6147 258.444 26.5384 258.427 26.458C258.411 26.3777 258.41 26.295 258.426 26.2145C258.442 26.134 258.473 26.0574 258.519 25.989C258.61 25.8512 258.754 25.7554 258.916 25.7227C259.079 25.6899 259.248 25.7229 259.387 25.8144L260.998 26.876L263.458 24.2673C263.56 24.1595 263.696 24.0912 263.844 24.0743C263.991 24.0574 264.14 24.0931 264.264 24.1749L264.509 24.3375C264.585 24.3875 264.649 24.4534 264.697 24.5305C264.744 24.6076 264.775 24.6941 264.785 24.7841C264.796 24.874 264.787 24.9652 264.759 25.0513C264.731 25.1374 264.684 25.2163 264.622 25.2827L262.322 27.7529L264.656 29.2921L267.118 26.6833C267.219 26.5746 267.356 26.5054 267.504 26.4885C267.652 26.4716 267.801 26.5079 267.924 26.591L268.192 26.7676C268.267 26.8176 268.331 26.8835 268.379 26.9606C268.427 27.0377 268.457 27.1243 268.468 27.2142C268.478 27.3041 268.469 27.3953 268.441 27.4814C268.413 27.5675 268.366 27.6465 268.304 27.7128L266.008 30.173L267.325 31.0419C267.394 31.0869 267.454 31.1451 267.5 31.213C267.546 31.2809 267.578 31.3572 267.595 31.4376C267.611 31.518 267.612 31.6009 267.596 31.6814C267.58 31.7619 267.548 31.8385 267.503 31.9068C267.457 31.9752 267.399 32.034 267.331 32.0799C267.263 32.1258 267.186 32.1579 267.105 32.1743C267.025 32.1907 266.942 32.1911 266.861 32.1755C266.78 32.1599 266.703 32.1286 266.635 32.0834L265.114 31.0801L263.013 33.3717L264.423 34.3008C264.491 34.346 264.55 34.4042 264.596 34.4722C264.643 34.5401 264.675 34.6164 264.691 34.6967C264.708 34.777 264.708 34.8598 264.692 34.9403C264.677 35.0207 264.645 35.0974 264.6 35.1657C264.508 35.3035 264.365 35.3993 264.202 35.4321C264.039 35.4648 263.87 35.4318 263.732 35.3403L262.12 34.2788L259.602 36.9658C259.501 37.0745 259.365 37.1438 259.217 37.1615C259.07 37.1791 258.92 37.1439 258.797 37.0621L258.508 36.8614C258.432 36.8114 258.368 36.7455 258.32 36.6682C258.272 36.5909 258.242 36.5041 258.231 36.4139C258.221 36.3237 258.23 36.2323 258.258 36.146C258.286 36.0597 258.333 35.9806 258.396 35.9142L260.773 33.3818L258.438 31.8426L255.918 34.5296C255.817 34.638 255.68 34.707 255.533 34.7243C255.385 34.7415 255.236 34.706 255.112 34.6239L254.824 34.4333C254.751 34.383 254.689 34.3177 254.643 34.2416C254.597 34.1656 254.568 34.0806 254.557 33.9924C254.547 33.9041 254.556 33.8148 254.583 33.7302C254.61 33.6457 254.655 33.5679 254.715 33.5022ZM261.665 32.4988L263.792 30.2212L261.458 28.682L259.33 30.9577L261.665 32.4988Z" fill="#F48C7F"/>
<path d="M173.286 14.2236C173.837 13.3977 174.565 12.704 175.419 12.1928C176.272 11.6816 177.228 11.3656 178.219 11.2677C181.299 10.9226 183.696 13.124 184.016 15.9635C184.387 19.2505 181.932 23.4626 174.803 27.6827C166.912 25.1422 163.58 21.5783 163.21 18.2913C162.89 15.4518 164.737 12.7768 167.817 12.4316C168.805 12.3075 169.808 12.4039 170.754 12.7138C171.7 13.0238 172.565 13.5395 173.286 14.2236Z" fill="#F48C7F"/>
<path d="M147.969 18.3695C150.606 18.5091 153.248 18.4984 155.883 18.3374C156.679 18.2892 158.073 18.4397 158.581 17.7253C158.719 17.5632 158.79 17.3545 158.779 17.1419C158.769 16.9293 158.677 16.7288 158.522 16.5815C157.896 15.9594 156.709 16.2925 155.904 16.3407C153.46 16.4892 150.69 16.5414 147.886 16.431C147.361 16.4089 146.932 16.9427 146.95 17.4344C146.972 17.9962 147.435 18.3394 147.957 18.3655L147.969 18.3695Z" fill="#F48C7F"/>
<path d="M189.133 22.1642C190.303 22.112 191.472 22.0398 192.64 21.9635C193.76 21.8973 195.094 22.0157 196.129 21.5722C196.894 21.2451 196.904 20.2077 196.064 19.9669C194.977 19.6498 193.685 19.9207 192.563 19.9909C191.395 20.0632 190.227 20.1334 189.058 20.2237C187.812 20.322 187.876 22.2184 189.133 22.1642Z" fill="#F48C7F"/>
<path d="M159.652 32.9844C160.976 30.448 162.718 29.5871 164.028 28.5697C164.182 28.465 164.293 28.3093 164.343 28.1303C164.393 27.9512 164.377 27.7605 164.298 27.5919C164.22 27.4234 164.084 27.288 163.915 27.2098C163.746 27.1316 163.555 27.1157 163.375 27.165C160.958 27.6907 158.996 29.9984 157.936 32.1035C157.372 33.2132 159.084 34.0942 159.662 32.9864L159.652 32.9844Z" fill="#F48C7F"/>
<path d="M173.487 38.3564C173.365 37.1649 173.495 35.9611 173.868 34.8226C174.1 34.1202 175.381 32.1236 173.987 31.8446C172.675 31.5797 172.101 33.737 171.843 34.654C171.501 35.8841 171.396 37.1676 171.533 38.4367C171.664 39.6768 173.608 39.6126 173.487 38.3604V38.3564Z" fill="#F48C7F"/>
<path d="M182.977 30.46L185.008 31.7583C185.682 32.1898 186.343 32.8379 187.189 32.6152C187.665 32.4888 187.826 31.9971 187.745 31.5677C187.6 30.7871 186.536 30.3817 185.918 29.9904L183.881 28.7041C183.428 28.4191 182.776 28.688 182.548 29.1315C182.284 29.6432 182.526 30.171 182.977 30.46Z" fill="#F48C7F"/>
<path d="M164.825 7.54327C162.005 1.72379 162.047 1.70171 161.52 1.24017C160.992 0.778621 160.055 1.1619 160.096 1.90439C160.136 2.64688 160.142 2.51644 163.135 8.61687C163.373 9.1025 164.098 9.18878 164.519 8.92189C165.019 8.60282 165.061 8.03091 164.825 7.54327Z" fill="#F48C7F"/>
<path d="M175.502 6.88306C175.834 5.87497 176.056 4.83417 176.164 3.77867C176.265 2.79537 176.555 1.30238 175.606 0.676279C175.489 0.612888 175.356 0.582567 175.223 0.588577C175.089 0.594588 174.96 0.636699 174.849 0.71039C174.043 1.31241 174.299 2.63484 174.2 3.54187C174.087 4.53147 173.889 5.50962 173.608 6.46567C173.556 6.71555 173.603 6.97597 173.741 7.19124C173.879 7.4065 174.096 7.5595 174.345 7.61752C174.899 7.73793 175.338 7.37872 175.502 6.88306Z" fill="#F48C7F"/>
<path d="M190.609 6.99343C190.757 6.52988 190.368 6.12251 189.967 5.99007C189.143 5.71716 188.13 6.55596 187.477 6.99343C186.719 7.5053 186.004 8.07776 185.34 8.70516C184.953 9.06436 185.044 9.74866 185.41 10.0818C185.841 10.4691 186.393 10.3567 186.792 10.0095C189.401 7.74595 190.235 8.13726 190.609 6.99343Z" fill="#F48C7F"/>
<path d="M298.615 46.9553L296.887 48.9279L293.889 47.8523L291.061 50.5774L288.513 50.18L287.759 51.5105L291.166 52.0403L293.845 49.4576L296.963 50.5774L299.566 47.6074L298.615 46.9553Z" fill="#466EB6"/>
<path d="M39.3128 39.1351C36.8432 42.5826 39.1235 47.5934 42.6889 49.2088C46.6311 50.9908 51.5381 49.6101 54.1065 46.1887C56.8863 42.4823 56.1974 37.9611 52.5957 35.6434C49.0906 33.3918 44.9934 35.3825 44.2823 39.2254C43.7707 41.9806 45.4486 44.0094 46.8829 43.9432C48.0009 43.891 48.6374 42.5906 47.737 41.816C47.5541 41.6766 47.335 41.5922 47.1055 41.5726C46.8761 41.553 46.6458 41.5992 46.4417 41.7057C45.7387 40.8709 45.7649 38.7899 47.2898 37.3451C49.2397 35.5029 52.1505 36.8996 53.3511 38.8902C54.88 41.4247 53.6855 44.4769 51.6288 46.3151C49.4694 48.2456 46.0872 48.8656 43.4181 47.6696C41.9633 47.0034 40.8285 45.7957 40.2573 44.3056C39.686 42.8155 39.7237 41.1617 40.3623 39.6989C40.4088 39.564 40.4057 39.4171 40.3535 39.2843C40.3014 39.1514 40.2036 39.0414 40.0776 38.9737C39.9516 38.906 39.8055 38.885 39.6655 38.9146C39.5254 38.9441 39.4004 39.0223 39.3128 39.1351Z" fill="#96D9C9"/>
<path d="M67.0147 290.031C67.0147 290.031 66.5776 298.1 66.5755 298.116C66.4083 299.142 65.7496 301.676 65.7517 302.607C65.7617 306.105 81.4639 299.569 77.9286 298.034C77.6083 297.896 75.4388 296.051 75.3301 294.861C75.1629 293.027 75.2394 290.109 75.2394 290.109L67.0147 290.031Z" fill="#F7A491"/>
<path d="M77.8883 298.006C77.8883 298.006 74.204 299.092 72.3145 299.366C70.425 299.641 67.9292 297.402 66.5957 298.016C65.1272 298.692 65.0486 306.404 65.0486 306.404C65.0486 306.404 84.3868 307.787 89.3361 306.346C91.558 305.7 85.4363 300.466 77.8883 298.006Z" fill="#184655"/>
<path d="M97.3051 289.905C97.3051 289.905 96.8679 297.974 96.8659 297.99C96.6987 299.015 96.04 301.55 96.042 302.481C96.0521 305.979 111.754 299.443 108.219 297.908C107.899 297.769 105.729 295.925 105.62 294.735C105.453 292.903 105.53 289.983 105.53 289.983L97.3051 289.905Z" fill="#F7A491"/>
<path d="M108.179 297.875C108.179 297.875 104.494 298.961 102.605 299.238C100.715 299.515 98.2196 297.271 96.8861 297.885C95.4176 298.562 95.339 306.273 95.339 306.273C95.339 306.273 114.677 307.656 119.626 306.215C121.848 305.569 115.727 300.336 108.179 297.875Z" fill="#184655"/>
<path d="M109.967 78.234C110.485 82.1712 111.112 81.9203 111.164 82.426C111.226 83.028 107.613 90.2703 107.613 90.2703C107.613 90.2703 97.0955 111.694 96.4892 112.838L77.7171 128.641L82.6383 140.224C82.6383 140.224 102.619 122.486 103.507 121.376C104.396 120.267 115.324 89.6703 116.369 87.0114C116.369 87.0114 118.762 84.2842 120.211 82.5243C121.659 80.7645 122.273 78.4487 122.606 77.8908C123.353 76.3965 123.917 74.8179 124.286 73.1891C124.824 70.8673 123.279 72.8359 123.279 72.8359C123.279 72.8359 121.526 76.9677 121.232 76.7771C121.006 76.6286 122.092 74.4272 122.715 71.8647C122.874 71.2044 123.029 70.5543 123.168 69.9543C123.53 68.381 122.688 67.7208 122.052 69.3101C121.756 70.0279 121.512 70.7655 121.321 71.5175C121.149 72.278 120.753 72.9222 120.515 73.5463C120.039 74.7764 119.709 75.6794 119.671 75.6313C119.633 75.5831 119.359 75.7497 119.506 75.0453C119.685 74.1985 120.452 72.4787 120.622 71.2125C120.716 70.4961 121.004 69.0051 121.004 69.0051C121.004 69.0051 121.028 66.6793 120.896 66.6351C120.174 66.3903 119.717 67.9817 119.713 68.971C119.393 69.6051 119.133 71.1784 119.133 71.1784C119.133 71.1784 117.908 74.2527 117.481 74.0881C117.3 74.0199 117.83 72.0473 118.053 70.0345C118.255 68.1643 118.172 66.2458 117.816 66.1535C117.211 65.997 116.764 68.0519 116.764 68.0519C116.764 68.0519 116.524 69.5068 116.41 69.9844C116.275 70.5442 115.745 72.1918 115.745 72.1918C115.745 72.1918 113.638 77.8407 113.247 77.65C112.856 77.4594 112.05 76.5644 112.062 76.1691C112.075 75.7737 112.465 75.0594 112.481 74.664C112.498 74.2687 112.177 73.751 111.702 73.7068C111.226 73.6627 110.453 75.555 110.453 75.555C110.453 75.555 109.818 77.0982 109.967 78.234Z" fill="#F8A492"/>
<path d="M15.2812 86.2448C15.5148 90.2101 14.8521 90.0796 14.8964 90.5873C14.9488 91.1894 19.8659 97.6229 19.8659 97.6229C19.8659 97.6229 34.2406 116.687 35.0504 117.69L56.4714 129.678L53.8325 141.985C53.8325 141.985 30.8685 128.322 29.7807 127.399C28.693 126.476 12.1911 98.4838 10.6602 96.0657C10.6602 96.0657 7.79571 93.8382 6.04117 92.3813C4.28664 90.9245 3.2452 88.7693 2.81815 88.2816C1.80396 86.9538 0.952567 85.5101 0.282039 83.9812C-0.684868 81.8019 1.20866 83.4434 1.20866 83.4434C1.20866 83.4434 3.71254 87.1719 3.96434 86.9291C4.16578 86.7405 2.67513 84.7839 1.58132 82.3819C1.2993 81.7638 1.02333 81.1537 0.775564 80.5919C0.122902 79.1149 0.823909 78.3082 1.74851 79.749C2.1744 80.3987 2.55404 81.0773 2.88463 81.7798C3.19484 82.4962 3.70851 83.0561 4.05902 83.62C4.75801 84.7398 5.25153 85.5645 5.28175 85.5103C5.31197 85.4562 5.61211 85.5685 5.33211 84.9083C4.99772 84.1056 3.92204 82.5645 3.51916 81.3524C3.29153 80.6661 2.72751 79.2594 2.72751 79.2594C2.72751 79.2594 2.2642 76.9798 2.38707 76.9095C3.04779 76.5363 3.79715 78.0112 3.98851 78.9825C4.42161 79.5444 4.97556 81.0414 4.97556 81.0414C4.97556 81.0414 6.7583 83.8307 7.14708 83.5899C7.31226 83.4876 6.41786 81.6494 5.81959 79.7149C5.26161 77.9089 4.98765 76.0165 5.32002 75.86C5.88405 75.5931 6.71197 77.5256 6.71197 77.5256C6.71197 77.5256 7.21959 78.9102 7.42305 79.3557C7.66276 79.8815 8.49269 81.3986 8.49269 81.3986C8.49269 81.3986 11.6291 86.5498 11.9776 86.291C12.3261 86.0321 12.9465 84.9966 12.8599 84.6113C12.7733 84.226 12.2556 83.5979 12.1669 83.2066C12.0783 82.8153 12.2918 82.2514 12.7491 82.119C13.2064 81.9865 14.3264 83.6983 14.3264 83.6983C14.3264 83.6983 15.2127 85.101 15.2812 86.2448Z" fill="#F8A492"/>
<path d="M71.255 187.355C71.255 187.355 95.2262 243.357 96.1206 248.408C96.7753 252.094 96.0662 294.067 96.0662 294.067L107.321 293.84L111.128 245.879L96.1347 185.481L71.255 187.355Z" fill="#B75742"/>
<path d="M60.8043 190.04L71.8351 252.305L64.8714 294.02L77.6889 293.966L87.6198 249.094L88.8587 199.966L83.6193 184.177L60.8043 190.04Z" fill="#F47458"/>
<path d="M91.6648 115.94C91.6648 115.94 94.5131 128.478 96.4993 130.427C96.4993 130.427 86.4616 137.127 86.935 139.764C87.4084 142.401 98.2337 191.678 98.2337 191.678C98.2337 191.678 76.2889 203.116 62.6153 201.346C62.6153 201.346 52.1545 145.21 49.4855 142.585C46.8164 139.961 38.5232 135.815 38.5232 135.815C38.5232 135.815 44.6691 124.031 44.663 121.948C44.663 121.948 59.354 128.645 61.8397 131.089C64.3255 133.533 69.1177 130.403 70.272 129.911C70.28 129.911 89.9042 117.016 91.6648 115.94Z" fill="#D7DDE8"/>
<path d="M63.7514 119.661L61.9223 131.197C61.9223 131.197 66.8294 139.224 70.7332 138.02C74.0107 136.999 73.7085 130.639 73.7085 130.639C73.7085 130.639 71.8955 124.069 72.4273 120.774C72.9591 117.479 63.7514 119.661 63.7514 119.661Z" fill="#F7A491"/>
<path d="M72.4273 120.758C72.9531 117.463 63.7514 119.653 63.7514 119.653L63.6043 120.616C63.8397 121.211 64.1809 121.759 64.6115 122.233C66.6742 124.403 69.8932 125.697 72.6691 125.785C72.3891 124.011 72.2118 122.109 72.4273 120.758Z" fill="#F47458"/>
<path d="M62.1902 103.206C61.9304 103.113 60.1436 116.45 63.6204 120.112C67.0973 123.774 73.8515 124.94 76.2647 122.039C78.9358 118.828 78.7565 104.496 73.358 100.745C67.9594 96.9948 62.1902 103.206 62.1902 103.206Z" fill="#F7A491"/>
<path d="M62.4803 95.865C60.5908 96.0938 57.2932 98.6985 54.6524 103.035C51.4052 108.365 55.5266 114.875 59.3338 117.752C63.141 120.63 63.0725 123.973 63.0725 123.973L63.695 122.237C64.1433 120.93 64.3014 119.542 64.1583 118.168C64.0843 117.325 63.8741 116.5 63.5358 115.724C62.6173 113.799 65.4898 112.513 66.2915 110.893C66.9079 109.655 66.9301 106.826 67.903 104.777L69.0673 103.212C69.0673 103.212 72.3689 103.481 74.3954 101.707C80.221 96.6116 71.2852 89.9412 62.4803 95.865Z" fill="#F7CC7F"/>
<path d="M66.1203 113.265C66.1525 114.893 65.4052 116.229 64.4504 116.249C63.4955 116.269 62.6958 114.967 62.6636 113.34C62.6314 111.712 63.3787 110.376 64.3335 110.356C65.2883 110.335 66.088 111.634 66.1203 113.265Z" fill="#F7A491"/>
<path d="M266.633 92.889C260.863 89.7766 253.898 91.0208 249.941 96.1319C248.2 95.6063 246.37 95.4368 244.561 95.6337C242.752 95.8306 241.002 96.3898 239.416 97.2777C233.274 100.81 229.503 110.703 234.483 116.077C235.691 121.605 237.907 125.972 243.435 126.042C246.694 132.01 256.845 133.754 262.717 128.157C267.839 129.763 273.318 126.851 276.876 122.795C277.716 121.838 278.427 120.333 278.747 120.132C278.747 120.132 291.961 117.71 290.761 104.961C289.516 91.6188 275.586 82.414 266.633 92.889Z" fill="#13375B"/>
<path d="M216.162 252.451C216.376 256.345 216.896 260.217 217.717 264.03C217.796 264.325 218.742 265.495 218.829 265.798C217.399 272.597 212.683 276.119 208.372 278.503C209.66 275.151 212.061 271.427 211.91 270.622C211.117 265.689 209.963 260.82 208.459 256.053C211.795 256.118 213.225 254.183 216.162 252.451Z" fill="#F8A492"/>
<path d="M232.283 169.534L252.82 186.099C252.82 186.099 242.472 196.263 238.59 200.04C234.709 203.816 215.179 217.43 214.837 218.301C214.766 218.475 215.795 220.55 216.112 223.137C216.97 230.129 217.937 243.724 218.225 255.381C216.009 257.689 211.229 258.237 208.368 258.961C201.334 244.637 198.79 217.139 198.824 213.838C198.869 208.458 232.283 169.534 232.283 169.534Z" fill="#D7DDE9"/>
<path d="M292.187 205.572C291.381 206.088 285.056 213.938 282.351 218.303C280.26 216.126 279.2 213.872 276.711 212.15C279.571 209.417 285.469 202.608 286.22 200.835C288.001 196.62 289.103 196.201 289.103 196.201C289.103 196.201 302.197 204.543 302.829 206.164C303.462 207.786 295.426 203.508 292.187 205.572Z" fill="#F8A492"/>
<path d="M285.84 201.772C284.74 201.517 287.066 196.622 287.578 195.489C288.156 194.214 288.988 193.988 289.19 193.984C289.721 193.984 304.265 203.245 306.491 205.865C306.659 206.11 306.794 206.375 306.894 206.654C307.734 209.833 294.626 207.304 293.027 205.625C291.607 204.132 290.791 202.928 285.84 201.772Z" fill="#184655"/>
<path d="M227.815 174.322L247.355 166.074C247.282 166.106 247.445 166.843 247.47 166.897C250.376 173.499 257.201 173.298 260.376 184.006C262.886 192.472 261.486 220.821 261.486 220.821C261.486 220.821 269.946 214.677 278.826 208.121C279.631 207.519 285.991 214.566 285.991 214.566C273.904 234.744 255.209 242.518 252.842 241.587C244.76 238.406 232.755 184.279 232.775 184.283C231.22 181.044 227.815 174.322 227.815 174.322Z" fill="#F1F5FD"/>
<path d="M257.205 128.787C257.205 128.787 279.444 124.356 284.387 123.674C289.331 122.992 306.598 117.477 307.261 117.241C307.923 117.004 310.621 108.03 311.565 108.714C312.51 109.398 309.954 113.225 311.146 113.799C312.339 114.373 322.759 110.127 322.804 110.99C322.892 112.611 316.527 113.843 316.706 114.602C316.885 115.36 323.223 112.681 323.958 113.831C324.693 114.981 317.713 115.78 317.574 116.398C317.435 117.016 324.244 116.548 323.837 117.865C323.615 118.579 317.764 118.13 317.995 118.984C318.227 119.839 322.653 120.895 322.32 121.692C321.988 122.488 318.71 120.287 316.388 120.784C314.065 121.282 312.123 120.383 308.671 122.283C305.218 124.184 293.833 132.317 285.864 133.704C277.895 135.09 260.295 138.233 260.295 138.233L257.205 128.787Z" fill="#F8A492"/>
<path d="M231.58 126.403C231.58 126.403 223.162 105.429 221.035 100.918C218.908 96.4068 214.117 79.0086 213.954 78.3223C213.791 77.636 219.862 70.4961 218.773 70.0726C217.683 69.6492 215.858 73.8854 214.726 73.1991C213.594 72.5128 211.473 61.5019 210.719 61.9374C209.309 62.7401 211.749 68.7321 211.019 68.995C210.29 69.2579 209.075 62.5073 207.708 62.5234C206.34 62.5394 209.478 68.7943 209.035 69.2539C208.592 69.7134 205.266 63.7695 204.384 64.8271C203.904 65.403 207.476 70.0445 206.636 70.3215C205.796 70.5984 202.486 67.4779 202.003 68.1903C201.519 68.9027 205.147 70.4399 206.003 72.6453C206.86 74.8506 208.662 75.9904 208.959 79.9036C209.255 83.8167 208.63 97.7634 211.809 105.174C214.988 112.585 221.966 128.982 221.966 128.982L231.58 126.403Z" fill="#F8A492"/>
<path d="M224.87 151.588C224.6 147.693 224.179 137.185 224.361 135.897C223.269 131.843 219.202 125.809 218.354 124.106C218.354 124.106 224.014 117.56 228.166 117.656C228.166 117.656 232.523 123.502 235.782 125.314C235.831 125.302 236.936 125.841 237.426 125.841C240.591 125.841 251.649 125.607 253.706 126.269L252.365 144.042C251.76 145.046 250.838 165.498 249.599 167.17C248.36 168.841 230.488 176.33 227.557 174.326C227.441 174.243 225.418 159.462 224.87 151.588Z" fill="#F47458"/>
<path d="M248.066 126.484C248.563 126.241 249.732 125.98 251.43 125.966C256.446 125.928 264.892 125.801 264.892 125.801C264.892 125.801 266.85 136.519 265.158 139.076C265.158 139.076 251.944 140.992 252.308 142.122L248.066 126.484Z" fill="#F47458"/>
<path d="M244.702 119.362C244.702 119.362 243.493 125.52 243.695 127.956C243.896 130.393 242.722 138.225 237.772 138.203C232.823 138.181 236.93 128.221 237.42 125.841C237.909 123.461 238.093 116.081 238.093 116.081L244.702 119.362Z" fill="#F8A492"/>
<path d="M237.96 119.783C238.056 117.764 238.099 116.081 238.099 116.081L244.702 119.362C244.702 119.362 244.456 120.622 244.204 122.227C241.294 122.805 239.201 121.667 237.96 119.783Z" fill="#F47458"/>
<path d="M247.294 102.357C248.966 103.472 250.187 105.141 250.739 107.069C251.643 110.279 250.499 118.527 243.874 120.457C237.249 122.388 234.453 115.818 235.863 110.719C237.273 105.62 240.294 99.1721 247.294 102.357Z" fill="#F8A492"/>
<path d="M235.055 108.728C235.172 110.103 235.889 111.16 236.666 111.088C237.444 111.016 237.966 109.846 237.849 108.479C237.732 107.113 237.015 106.047 236.237 106.119C235.46 106.192 234.94 107.353 235.055 108.728Z" fill="#F8A492"/>
<path d="M217.747 264.205C218.295 263.177 222.044 267.185 222.944 268.018C223.952 268.953 223.927 269.85 223.875 270.046C223.738 270.566 211.416 282.777 208.074 284.246C207.711 284.357 207.321 284.344 206.966 284.21C205.325 283.287 209.521 272.509 212.061 270.608C213.702 269.378 215.282 268.824 217.747 264.205Z" fill="#184655"/>
<path d="M246.523 101.933C246.523 101.933 247.631 111.164 250.477 112.848C253.323 114.531 252.089 118.613 252.089 118.613C252.089 118.613 254.778 109.149 252.546 106.079C250.314 103.009 246.523 101.933 246.523 101.933Z" fill="#13375B"/>
<path d="M248.769 114.154C247.981 115.346 247.963 116.763 248.745 117.317C249.526 117.871 250.785 117.351 251.565 116.159C252.345 114.967 252.371 113.55 251.591 112.996C250.812 112.443 249.557 112.962 248.769 114.154Z" fill="#F8A492"/>
</g>
<defs>
<clipPath id="clip0_63:2418">
<rect width="324.008" height="307" fill="white"/>
</clipPath>
</defs>
</svg>
