<svg width="115" height="21" viewBox="0 0 115 21" fill="none" xmlns="http://www.w3.org/2000/svg">
<g clip-path="url(#clip0_124:860)">
<path d="M108.904 12.749C108.85 11.9448 109.023 11.1417 109.402 10.4383C109.565 10.1972 109.785 10.0038 110.041 9.87665C110.297 9.74951 110.58 9.69294 110.863 9.71238C111.077 9.69597 111.29 9.73714 111.484 9.83191C111.678 9.92668 111.844 10.0718 111.968 10.2533C112.238 10.7562 112.362 11.3298 112.324 11.9044V17.8448H115V11.2022C115 9.90216 114.717 8.95322 114.146 8.35539C113.806 8.03981 113.409 7.7986 112.977 7.64616C112.546 7.49372 112.089 7.43317 111.635 7.46814C111.038 7.45654 110.447 7.58976 109.909 7.8572C109.423 8.09229 109.018 8.47647 108.749 8.95797H108.512C107.994 7.96791 107.003 7.4713 105.539 7.46814C104.949 7.45694 104.366 7.59193 103.836 7.86195C103.362 8.10428 102.967 8.48525 102.699 8.95797H102.553L102.197 7.65792H100.16V17.8448H102.827V13.0669C102.827 11.8712 102.978 11.0172 103.284 10.4952C103.44 10.2364 103.661 10.0268 103.923 9.88883C104.185 9.75089 104.479 9.68988 104.772 9.71238C104.987 9.69523 105.202 9.73601 105.397 9.83077C105.593 9.92553 105.761 10.0711 105.886 10.2533C106.152 10.7576 106.274 11.3305 106.238 11.9044V17.8448H108.904V12.749ZM94.6355 13.9731C94.6471 14.2452 94.6036 14.5167 94.5076 14.7701C94.4116 15.0236 94.2654 15.2531 94.0784 15.444C93.8787 15.6339 93.6447 15.7808 93.39 15.8761C93.1353 15.9714 92.8649 16.0132 92.5945 15.9991C91.7315 15.9991 91.3023 15.61 91.3023 14.8272C91.2869 14.591 91.3311 14.3548 91.4304 14.1418C91.5297 13.9288 91.6806 13.7464 91.8685 13.6125C92.3968 13.303 92.9975 13.1519 93.6035 13.176L94.6355 13.138V13.9731ZM97.2838 17.8448V11.0741C97.3207 10.5697 97.2452 10.0633 97.063 9.59426C96.8809 9.12519 96.597 8.70611 96.2336 8.36963C95.5365 7.77812 94.5305 7.48079 93.2154 7.47763C91.9158 7.4619 90.632 7.77625 89.4759 8.39335L90.3571 10.2912C91.2122 9.8537 92.1447 9.60339 93.0967 9.5558C94.1104 9.5558 94.6218 10.0682 94.6218 11.0978V11.5438L92.9232 11.6008C91.4621 11.6514 90.3678 11.9345 89.6402 12.4501C89.2781 12.715 88.9878 13.0725 88.7974 13.4881C88.607 13.9037 88.523 14.3632 88.5535 14.8224C88.5276 15.254 88.5859 15.6866 88.7247 16.0942C88.8636 16.5019 89.0803 16.8762 89.3617 17.1948C89.6597 17.484 90.0116 17.7069 90.3955 17.8497C90.7795 17.9925 91.1875 18.0522 91.5945 18.0251C92.2298 18.0484 92.8627 17.9337 93.4529 17.6882C93.9937 17.3946 94.4624 16.9758 94.8227 16.4641H94.8912L95.4208 17.8448H97.2838ZM84.7455 6.97943C85.2368 7.15767 85.7185 7.36358 86.1883 7.59624L87.065 5.30456C85.9015 4.69962 84.6217 4.37526 83.3209 4.35562C82.2029 4.3283 81.0987 4.61518 80.1246 5.18594C79.2164 5.74201 78.4895 6.5684 78.038 7.55829C77.5334 8.69991 77.2866 9.94631 77.3165 11.2022C77.3165 13.3943 77.8097 15.077 78.7959 16.2506C79.7822 17.4241 81.2037 18.0093 83.0606 18.0061C84.2599 18.0367 85.4532 17.8207 86.5719 17.3703V14.998C85.5295 15.4154 84.428 15.6511 83.3117 15.6954C81.1809 15.6954 80.1155 14.2151 80.1155 11.2544C80.0526 10.0831 80.3466 8.9209 80.9557 7.93312C81.2239 7.54485 81.5811 7.2322 81.9948 7.02343C82.4086 6.81467 82.8659 6.71638 83.3254 6.73745C83.8085 6.73486 84.2885 6.81666 84.7455 6.97943V6.97943ZM73.3304 17.8448C73.848 17.7305 74.3497 17.5488 74.8235 17.3039V15.164C74.2985 15.428 73.7473 15.6316 73.1797 15.7713C72.6295 15.8968 72.0672 15.9557 71.504 15.9469C71.1814 15.9669 70.8584 15.9184 70.5545 15.8042C70.2507 15.6899 69.9725 15.5125 69.7369 15.2826C69.2935 14.7797 69.0532 14.1189 69.0657 13.437H75.3851V12.1132C75.4202 11.4974 75.3374 10.8804 75.1414 10.2981C74.9455 9.7158 74.6403 9.17966 74.2436 8.72074C73.8149 8.29779 73.3072 7.9709 72.7518 7.76032C72.1965 7.54975 71.6055 7.45999 71.0154 7.4966C70.3859 7.46162 69.7566 7.56812 69.1704 7.80885C68.5841 8.04958 68.0547 8.41888 67.6183 8.89154C66.7995 9.8215 66.39 11.1374 66.39 12.8391C66.39 14.4903 66.8466 15.7713 67.7187 16.6728C68.5909 17.5743 69.8374 18.0251 71.4081 18.0251C72.0531 18.0333 72.6972 17.9729 73.3304 17.8448ZM72.3578 10.0208C72.7146 10.4652 72.8986 11.0321 72.8738 11.6103H69.1296C69.1398 11.0338 69.3323 10.4769 69.6776 10.0255C69.8464 9.83718 70.0528 9.68948 70.2823 9.59276C70.5118 9.49605 70.7589 9.45266 71.0063 9.46565C71.2585 9.45194 71.5106 9.49485 71.7454 9.59146C71.9802 9.68807 72.1922 9.83612 72.367 10.0255L72.3578 10.0208ZM58.0068 12.7442C57.9486 11.9415 58.1168 11.1386 58.4908 10.4336C58.6553 10.1928 58.8763 9.99964 59.1328 9.87258C59.3894 9.74552 59.6729 9.68874 59.9565 9.70763C60.1732 9.68931 60.3908 9.73 60.5877 9.82569C60.7847 9.92137 60.9543 10.0687 61.0797 10.2533C61.3594 10.7565 61.4912 11.3338 61.4587 11.9139V17.8448H64.1344V11.2022C64.1344 9.90216 63.8468 8.95322 63.2806 8.35539C62.9398 8.0399 62.5415 7.79878 62.1093 7.64637C61.6771 7.49395 61.2199 7.43334 60.7647 7.46814C60.1682 7.45759 59.5774 7.59076 59.0387 7.8572C58.5537 8.09356 58.1493 8.47743 57.879 8.95797H57.6461C57.1256 7.96791 56.1347 7.4713 54.6736 7.46814C54.0824 7.45691 53.4971 7.59189 52.9659 7.86195C52.494 8.10698 52.0995 8.48731 51.829 8.95797H51.6829L51.3221 7.65792H49.2857V17.8448H51.9523V13.0669C51.9523 11.8712 52.1075 11.0172 52.4089 10.4952C52.5639 10.2365 52.7841 10.0267 53.0457 9.88868C53.3073 9.75068 53.6003 9.68971 53.8928 9.71238C54.1055 9.6968 54.3184 9.73839 54.5112 9.83312C54.7039 9.92785 54.8699 10.0725 54.9932 10.2533C55.2632 10.7562 55.387 11.3298 55.3494 11.9044V17.8448H58.0159L58.0068 12.7442ZM46.3406 7.68639H43.674V17.8448H46.3406V7.68639ZM45.021 6.4243C45.4147 6.45675 45.805 6.32726 46.1077 6.06371C46.2328 5.93282 46.33 5.77603 46.3929 5.60355C46.4559 5.43106 46.4832 5.24674 46.473 5.06258C46.473 4.16109 45.989 3.7056 45.021 3.7056C44.053 3.7056 43.569 4.18007 43.569 5.06258C43.569 5.94509 44.0439 6.4243 45.021 6.4243ZM38.3272 6.89877H41.802V4.55964H32.1403V6.90352H35.6104V17.8448H38.3181L38.3272 6.89877Z" fill="white"/>
<path d="M17.4012 4.16108V4.92972C18.6683 4.93185 19.8955 5.39028 20.874 6.22695C21.8524 7.06362 22.5215 8.22681 22.7674 9.51848C23.0133 10.8102 22.8207 12.1505 22.2225 13.3112C21.6244 14.472 20.6575 15.3814 19.4866 15.8847C18.3157 16.3879 17.0131 16.4539 15.8006 16.0714C14.5881 15.689 13.5407 14.8816 12.8367 13.7869C12.1326 12.6921 11.8155 11.3776 11.9393 10.0672C12.063 8.75681 12.6201 7.53148 13.5155 6.59985C14.0254 6.0693 14.6312 5.64864 15.298 5.36203C15.9648 5.07542 16.6796 4.92851 17.4012 4.92972V3.39719C16.0231 3.39719 14.6759 3.82183 13.5301 4.61741C12.3843 5.413 11.4912 6.54379 10.9638 7.8668C10.4364 9.18981 10.2984 10.6456 10.5673 12.0501C10.8361 13.4546 11.4998 14.7447 12.4742 15.7573C13.4487 16.7699 14.6902 17.4595 16.0418 17.7389C17.3934 18.0182 18.7944 17.8748 20.0676 17.3268C21.3408 16.7788 22.429 15.8508 23.1947 14.6601C23.9603 13.4695 24.3689 12.0696 24.3689 10.6376C24.3689 8.71731 23.6348 6.87569 22.3281 5.51785C21.0214 4.16001 19.2491 3.39719 17.4012 3.39719V4.16108Z" fill="url(#paint0_linear_124:860)"/>
<path d="M2.52959 6.50024H9.66172C9.76344 6.50856 9.86571 6.49493 9.96212 6.4602C10.0585 6.42546 10.147 6.37038 10.2219 6.29841C10.2968 6.22645 10.3566 6.13915 10.3975 6.04201C10.4384 5.94487 10.4595 5.84 10.4595 5.73397C10.4595 5.62795 10.4384 5.52307 10.3975 5.42593C10.3566 5.32879 10.2968 5.2415 10.2219 5.16953C10.147 5.09756 10.0585 5.04248 9.96212 5.00775C9.86571 4.97301 9.76344 4.95938 9.66172 4.9677H2.52959C2.34403 4.98289 2.17081 5.0702 2.04447 5.21223C1.91813 5.35426 1.84796 5.54056 1.84796 5.73397C1.84796 5.92738 1.91813 6.11368 2.04447 6.25571C2.17081 6.39774 2.34403 6.48506 2.52959 6.50024" fill="url(#paint1_linear_124:860)"/>
<path d="M20.1864 10.7515H17.9034V7.66268C17.9034 7.52552 17.8509 7.39397 17.7576 7.29698C17.6642 7.19999 17.5377 7.14551 17.4057 7.14551C17.2737 7.14551 17.1471 7.19999 17.0537 7.29698C16.9604 7.39397 16.908 7.52552 16.908 7.66268V11.2686C16.9105 11.4052 16.9627 11.5357 17.0541 11.634C17.148 11.7293 17.2744 11.7821 17.4057 11.7811H20.1909C20.26 11.788 20.3297 11.7798 20.3955 11.7571C20.4613 11.7343 20.5219 11.6975 20.5732 11.6491C20.6246 11.6006 20.6656 11.5415 20.6937 11.4756C20.7217 11.4097 20.7362 11.3384 20.7362 11.2663C20.7362 11.1942 20.7217 11.1229 20.6937 11.057C20.6656 10.9911 20.6246 10.932 20.5732 10.8835C20.5219 10.835 20.4613 10.7982 20.3955 10.7755C20.3297 10.7528 20.26 10.7446 20.1909 10.7515H20.1864Z" fill="url(#paint2_linear_124:860)"/>
<path d="M0.729637 1.52853H16.5692C17.6982 1.51553 18.8228 1.6754 19.907 2.003C20.951 2.30739 21.9135 2.85779 22.7196 3.61145C23.6421 4.45461 24.3934 5.4805 24.9296 6.62907C25.4796 7.88694 25.7511 9.257 25.7241 10.6383V10.6383C25.7241 12.9268 24.8905 15.1305 23.3908 16.8064C22.648 17.6389 21.7471 18.3023 20.7451 18.7547C19.7431 19.2071 18.6617 19.4387 17.5692 19.435H17.5281H17.0715C14.9108 19.4286 12.8325 18.5725 11.2543 17.0389C9.6825 15.5432 8.68362 13.5077 8.44166 11.3073V11.3073C8.40864 11.0081 8.39491 10.707 8.40057 10.4058C8.40185 10.2077 8.32855 10.0169 8.19632 9.87422C8.06409 9.73149 7.8834 9.64814 7.69283 9.64195C7.23623 9.64195 6.77963 9.61823 6.32302 9.61823H4.3231C4.13755 9.63341 3.96433 9.72073 3.83799 9.86276C3.71165 10.0048 3.64148 10.1911 3.64148 10.3845C3.64148 10.5779 3.71165 10.7642 3.83799 10.9062C3.96433 11.0483 4.13755 11.1356 4.3231 11.1508H6.32302C6.77963 11.1508 7.23623 11.1508 7.63804 11.1508L7.67 10.3869H6.9303C6.92282 10.745 6.93808 11.1032 6.97596 11.4592V11.4592C7.25953 14.0248 8.42345 16.3982 10.2544 18.1444C12.1046 19.9394 14.5403 20.9396 17.0715 20.9438C17.2495 20.9438 17.423 20.9438 17.6011 20.9438L17.5646 20.2179V20.9818C18.8601 20.9869 20.1426 20.7134 21.3315 20.1786C22.5204 19.6437 23.59 18.8591 24.473 17.874C26.2334 15.9105 27.2124 13.3267 27.2126 10.6431V10.6431C27.233 9.03546 26.9069 7.44346 26.2583 5.9838C25.6404 4.65827 24.776 3.47303 23.715 2.49645C22.7467 1.58277 21.5914 0.909494 20.3362 0.527402C19.112 0.161872 17.8427 -0.0139937 16.5692 0.00548589H0.729637C0.534669 0.00548589 0.347685 0.0859677 0.209822 0.229226C0.0719579 0.372484 -0.00549316 0.566784 -0.00549316 0.769381C-0.00549316 0.971979 0.0719579 1.16628 0.209822 1.30954C0.347685 1.4528 0.534669 1.53328 0.729637 1.53328V1.52853Z" fill="url(#paint3_linear_124:860)"/>
</g>
<defs>
<linearGradient id="paint0_linear_124:860" x1="28.7706" y1="10.519" x2="-18.1865" y2="10.519" gradientUnits="userSpaceOnUse">
<stop stop-color="#0F7DEF"/>
<stop offset="1" stop-color="#00144C"/>
</linearGradient>
<linearGradient id="paint1_linear_124:860" x1="-56.4951" y1="-154.012" x2="-337.059" y2="-154.012" gradientUnits="userSpaceOnUse">
<stop stop-color="#0F7DEF"/>
<stop offset="1" stop-color="#00144C"/>
</linearGradient>
<linearGradient id="paint2_linear_124:860" x1="-1993.2" y1="-11715.2" x2="-2127.43" y2="-11699.1" gradientUnits="userSpaceOnUse">
<stop stop-color="#0F7DEF"/>
<stop offset="1" stop-color="#00144C"/>
</linearGradient>
<linearGradient id="paint3_linear_124:860" x1="-40794.2" y1="-69683.6" x2="-42584.5" y2="-68635.5" gradientUnits="userSpaceOnUse">
<stop stop-color="#0F7DEF"/>
<stop offset="1" stop-color="#00144C"/>
</linearGradient>
<clipPath id="clip0_124:860">
<rect width="115" height="21" fill="white"/>
</clipPath>
</defs>
</svg>
